<svg id="visual" viewBox="0 0 900 600" width="900" height="600" xmlns="http://www.w3.org/2000/svg" xmlns:xlink="http://www.w3.org/1999/xlink" version="1.1"><path d="M0 513L25 517C50 521 100 529 150 533.8C200 538.7 250 540.3 300 535.2C350 530 400 518 450 518.3C500 518.7 550 531.3 600 535.5C650 539.7 700 535.3 750 529.5C800 523.7 850 516.3 875 512.7L900 509L900 601L875 601C850 601 800 601 750 601C700 601 650 601 600 601C550 601 500 601 450 601C400 601 350 601 300 601C250 601 200 601 150 601C100 601 50 601 25 601L0 601Z" fill="#dfdfdf"></path><path d="M0 540L25 543.7C50 547.3 100 554.7 150 557.3C200 560 250 558 300 553.3C350 548.7 400 541.3 450 539.7C500 538 550 542 600 541.2C650 540.3 700 534.7 750 531.7C800 528.7 850 528.3 875 528.2L900 528L900 601L875 601C850 601 800 601 750 601C700 601 650 601 600 601C550 601 500 601 450 601C400 601 350 601 300 601C250 601 200 601 150 601C100 601 50 601 25 601L0 601Z" fill="#737374"></path><path d="M0 568L25 566.8C50 565.7 100 563.3 150 563.8C200 564.3 250 567.7 300 568.7C350 569.7 400 568.3 450 568.3C500 568.3 550 569.7 600 570.2C650 570.7 700 570.3 750 569C800 567.7 850 565.3 875 564.2L900 563L900 601L875 601C850 601 800 601 750 601C700 601 650 601 600 601C550 601 500 601 450 601C400 601 350 601 300 601C250 601 200 601 150 601C100 601 50 601 25 601L0 601Z" fill="#171719"></path></svg>